<svg width="60" height="62" viewBox="0 0 60 62" fill="none" xmlns="http://www.w3.org/2000/svg">
<path d="M49.1996 23.8219C48.1091 21.6383 45.9152 20.284 43.4756 20.284H16.5244C14.0848 20.284 11.8909 21.6383 10.8004 23.8219L4.94837 35.526C2.91578 39.5912 1.8406 44.1427 1.8406 48.6918V56.1233H6.96049V61.2432H17.2003V56.1233H42.7997V61.2432H53.0395V56.1233H58.1594V48.6918C58.1594 44.1453 57.0842 39.5912 55.0516 35.526L49.1996 23.8219ZM7.23697 36.6703L13.089 24.9662C13.7443 23.6555 15.0602 22.844 16.5219 22.844H43.473C44.9373 22.844 46.2505 23.6555 46.9059 24.9662L52.7579 36.6703C53.0088 37.172 53.2443 37.684 53.4645 38.2037H6.53298C6.75314 37.6866 6.98353 37.1746 7.23697 36.6703ZM14.6403 58.6832H9.52044V56.1233H14.6403V58.6832ZM50.4796 58.6832H45.3597V56.1233H50.4796V58.6832ZM55.5995 53.5633H4.40055V48.6918C4.40055 46.0115 4.8127 43.3287 5.60116 40.7636H12.0804V45.8835H14.6403V40.7636H45.3597V45.8835H47.9196V40.7636H54.3988C55.1899 43.3287 55.5995 46.0115 55.5995 48.6918V53.5633ZM60 14.0173L58.8711 16.311L31.6947 2.9481C30.6349 2.42843 29.3651 2.42587 28.3028 2.9481L1.12894 16.311L0 14.0173L27.1738 0.651826C28.9427 -0.218555 31.0547 -0.215995 32.8236 0.651826L60 14.0173Z" fill="#0219ED"/>
</svg>
