<svg width="40" height="30" viewBox="0 0 40 30" fill="none" xmlns="http://www.w3.org/2000/svg">
<path d="M34.5667 12.468L27.4 3.2115C26.6319 2.21967 25.6088 1.40965 24.4178 0.850469C23.2268 0.291285 21.9033 -0.000491297 20.56 6.20976e-07H14.1667C12.4767 0.00515366 10.828 0.470414 9.43736 1.33462C8.04669 2.19883 6.97913 3.42153 6.375 4.842L2.92167 13.038C2.0219 13.5879 1.28526 14.3275 0.776004 15.1924C0.266747 16.0573 0.000333968 17.0212 0 18L0 20.25C0.00136808 21.1141 0.333621 21.9514 0.940785 22.6208C1.54795 23.2902 2.39292 23.7508 3.33333 23.925V24.75C3.33333 26.1424 3.94791 27.4777 5.04188 28.4623C6.13584 29.4469 7.61957 30 9.16667 30C10.7138 30 12.1975 29.4469 13.2915 28.4623C14.3854 27.4777 15 26.1424 15 24.75V24H25V24.75C25 26.1424 25.6146 27.4777 26.7085 28.4623C27.8025 29.4469 29.2862 30 30.8333 30C32.3804 30 33.8642 29.4469 34.9581 28.4623C36.0521 27.4777 36.6667 26.1424 36.6667 24.75V23.925C37.6071 23.7508 38.4521 23.2902 39.0592 22.6208C39.6664 21.9514 39.9986 21.1141 40 20.25V19.5C39.9976 17.9694 39.476 16.476 38.5051 15.2194C37.5342 13.9627 36.1601 13.0028 34.5667 12.468ZM24.6667 4.926L30.14 12H18.3333V3H20.56C21.3663 2.99922 22.1609 3.17396 22.876 3.50933C23.5911 3.84469 24.2054 4.33073 24.6667 4.926ZM9.5 5.9055C9.86183 5.0543 10.5011 4.3214 11.3338 3.80291C12.1666 3.28441 13.1541 3.00454 14.1667 3H15V12H6.92333L9.5 5.9055ZM11.6667 24.75C11.6667 25.3467 11.4033 25.919 10.9344 26.341C10.4656 26.7629 9.82971 27 9.16667 27C8.50362 27 7.86774 26.7629 7.3989 26.341C6.93006 25.919 6.66667 25.3467 6.66667 24.75V24H11.6667V24.75ZM30.8333 27C30.1703 27 29.5344 26.7629 29.0656 26.341C28.5967 25.919 28.3333 25.3467 28.3333 24.75V24H33.3333V24.75C33.3333 25.3467 33.0699 25.919 32.6011 26.341C32.1323 26.7629 31.4964 27 30.8333 27ZM36.6667 20.25C36.6667 20.4489 36.5789 20.6397 36.4226 20.7803C36.2663 20.921 36.0543 21 35.8333 21H4.16667C3.94565 21 3.73369 20.921 3.57741 20.7803C3.42113 20.6397 3.33333 20.4489 3.33333 20.25V18C3.33333 17.2044 3.68452 16.4413 4.30964 15.8787C4.93476 15.3161 5.78261 15 6.66667 15H31.6667C32.9927 15 34.2645 15.4741 35.2022 16.318C36.1399 17.1619 36.6667 18.3065 36.6667 19.5V20.25Z" fill="#332208"/>
</svg>
