<svg width="40" height="30" viewBox="0 0 40 30" fill="none" xmlns="http://www.w3.org/2000/svg">
<path d="M31.6667 0H8.33333C6.12401 0.00264643 4.00593 0.88147 2.4437 2.4437C0.88147 4.00593 0.00264643 6.12401 0 8.33333L0 21.6667C0.00264643 23.876 0.88147 25.9941 2.4437 27.5563C4.00593 29.1185 6.12401 29.9974 8.33333 30H31.6667C33.876 29.9974 35.9941 29.1185 37.5563 27.5563C39.1185 25.9941 39.9974 23.876 40 21.6667V8.33333C39.9974 6.12401 39.1185 4.00593 37.5563 2.4437C35.9941 0.88147 33.876 0.00264643 31.6667 0ZM8.33333 3.33333H31.6667C32.9927 3.33333 34.2645 3.86012 35.2022 4.7978C36.1399 5.73548 36.6667 7.00725 36.6667 8.33333H3.33333C3.33333 7.00725 3.86012 5.73548 4.7978 4.7978C5.73548 3.86012 7.00725 3.33333 8.33333 3.33333ZM31.6667 26.6667H8.33333C7.00725 26.6667 5.73548 26.1399 4.7978 25.2022C3.86012 24.2645 3.33333 22.9927 3.33333 21.6667V11.6667H36.6667V21.6667C36.6667 22.9927 36.1399 24.2645 35.2022 25.2022C34.2645 26.1399 32.9927 26.6667 31.6667 26.6667Z" fill="#332208"/>
</svg>
