<svg width="40" height="30" viewBox="0 0 40 30" fill="none" xmlns="http://www.w3.org/2000/svg">
<path d="M20 30L18.6126 29.2531C16.7001 28.2472 0 19.1883 0 12.5619C0 5.62418 8.95433 0 20 0C31.0457 0 40 5.62418 40 12.5619C40 19.1884 23.2999 28.2473 21.3953 29.258L20 30ZM20 2.71626C11.3468 2.72241 4.33447 7.12684 4.32468 12.5619C4.32468 16.7247 14.5992 23.3747 20 26.4184C25.4009 23.3735 35.6753 16.7197 35.6753 12.5619C35.6655 7.12684 28.6533 2.72247 20 2.71626Z" fill="#332208"/>
<path d="M19.5 16.9412C15.3579 16.9412 12 14.9264 12 12.4412C12 9.95588 15.3579 7.94116 19.5 7.94116C23.6421 7.94116 27 9.95588 27 12.4412C27 14.9264 23.6422 16.9412 19.5 16.9412ZM19.5 10.1911C17.4289 10.1911 15.75 11.1985 15.75 12.4411C15.75 13.6837 17.4289 14.6911 19.5 14.6911C21.5711 14.6911 23.25 13.6837 23.25 12.4411C23.25 11.1985 21.5712 10.1911 19.5 10.1911Z" fill="#332208"/>
</svg>
