<svg width="40" height="30" viewBox="0 0 40 30" fill="none" xmlns="http://www.w3.org/2000/svg">
<path d="M39.1633 4.68417C38.7033 2.84067 37.3483 1.38751 35.6267 0.894252C32.5083 3.17271e-07 20 0 20 0C20 0 7.49167 3.17271e-07 4.37167 0.894252C2.65167 1.38751 1.29667 2.83889 0.836667 4.68417C0 8.02697 0 15 0 15C0 15 0 21.973 0.836667 25.3158C1.29667 27.1593 2.65167 28.6125 4.37333 29.1058C7.49167 30 20 30 20 30C20 30 32.5083 30 35.6283 29.1058C37.3483 28.6125 38.7033 27.1611 39.165 25.3158C40 21.973 40 15 40 15C40 15 40 8.02697 39.1633 4.68417ZM15.91 21.3325V8.66749L26.3633 15L15.91 21.3325Z" fill="#0219ED"/>
</svg>
